# xmcd
# 
# Track frame offsets:
#     150
#     15249
#     26886
#     42343
#     61157
#     74442
#     94467
#     118731
# 
# Disc length: 3016
# 
# Revision: 0
# Processed by: cddbd v1.5.2PL0 Copyright (c) Steve Scherf et al.
# Submitted via: fre:ac v1.0.17
# 
DISCID=6a0bc608
DTITLE=Ronald Lechtenberg - King and Queens
DYEAR=2013
DGENRE=Blues
TTITLE0=Dozen Moons
TTITLE1=Joan Osborne Record
TTITLE2=Kings and Queens
TTITLE3=The Bottom
TTITLE4=Desire
TTITLE5=When You're Gone
TTITLE6=Happy Endings
TTITLE7=Data track
EXTD=
EXTT0=
EXTT1=
EXTT2=
EXTT3=
EXTT4=
EXTT5=
EXTT6=
EXTT7=
PLAYORDER=
